<svg width="720" height="83" viewBox="0 0 720 83" fill="none" xmlns="http://www.w3.org/2000/svg">
<path d="M6 14.8552C108.349 13.4017 210.17 7.66635 312.396 6.43109C375.915 5.66355 439.546 6.15489 503.083 6.15489C542.62 6.15489 581.391 8.14058 620.765 9.26213C647.736 10.0304 688.78 7.36437 712.092 16.0981C722.013 19.8151 690.076 24.8695 688.978 25.0745C657.034 31.0397 623.387 33.7289 589.759 36.2606C521.678 41.3861 453.167 45.1181 385.119 50.2777C376.209 50.9533 321.213 55.1968 324.798 62.2233C328.356 69.1963 362.655 71.1784 372.858 72.3737C385.791 73.889 399.524 74.5752 411.897 77" stroke="#F09048" stroke-width="12" stroke-linecap="round"/>
</svg>
