<svg width="757" height="780" viewBox="0 0 757 780" fill="none" xmlns="http://www.w3.org/2000/svg">
<g filter="url(#filter0_d_1782_1330)">
<path d="M734.962 367.481C734.962 398.539 690.299 423.31 682.643 451.928C674.717 481.566 700.783 525.303 685.771 551.25C670.545 577.572 619.464 576.772 598.134 598.134C576.803 619.496 577.572 670.545 551.25 685.771C525.303 700.784 481.566 674.724 451.928 682.643C423.291 690.3 398.52 734.962 367.481 734.962C336.442 734.962 311.653 690.3 283.035 682.643C253.397 674.724 209.659 700.784 183.712 685.771C157.39 670.545 158.191 619.464 136.829 598.134C115.467 576.803 64.4174 577.572 49.1919 551.25C34.1791 525.303 60.2451 481.566 52.3196 451.928C44.6693 423.291 0 398.52 0 367.481C0 336.442 44.6693 311.653 52.3196 283.035C60.2451 253.397 34.1791 209.659 49.1919 183.712C64.4174 157.39 115.498 158.191 136.829 136.829C158.16 115.467 157.39 64.4174 183.712 49.1919C209.659 34.1791 253.397 60.2451 283.035 52.3196C311.671 44.6693 336.449 0 367.481 0C398.514 0 423.31 44.6693 451.928 52.3196C481.566 60.2451 525.303 34.1791 551.25 49.1919C577.572 64.4236 576.772 115.498 598.134 136.835C619.496 158.172 670.545 157.39 685.771 183.712C700.783 209.659 674.717 253.397 682.643 283.035C690.299 311.653 734.962 336.43 734.962 367.481Z" fill="#F26722"/>
</g>
<path d="M284.434 144.667C284.892 145.437 285.473 146.128 286.154 146.712C286.27 146.797 286.353 146.919 286.389 147.058C286.426 147.197 286.413 147.345 286.354 147.475C286.312 147.616 286.222 147.738 286.1 147.819C285.978 147.9 285.831 147.936 285.685 147.919C283.005 147.974 280.428 148.965 278.403 150.722C278.307 150.833 278.174 150.906 278.029 150.929C277.884 150.952 277.735 150.923 277.609 150.847C277.477 150.791 277.366 150.694 277.294 150.57C277.222 150.446 277.192 150.301 277.209 150.159C277.356 149.267 277.336 148.354 277.152 147.469L268.395 124.825C267.943 124.042 267.347 123.352 266.637 122.792C266.528 122.689 266.452 122.556 266.42 122.41C266.388 122.264 266.4 122.111 266.456 121.972C266.511 121.84 266.608 121.728 266.732 121.656C266.857 121.584 267.001 121.554 267.144 121.572C269.825 121.519 272.402 120.525 274.425 118.764C274.52 118.658 274.647 118.585 274.787 118.557C274.927 118.529 275.072 118.546 275.201 118.607C275.34 118.667 275.454 118.773 275.523 118.908C275.593 119.042 275.614 119.197 275.582 119.345C275.461 120.234 275.493 121.138 275.676 122.016L284.434 144.667Z" fill="#FFF0E9"/>
<path d="M324.449 133.051C325.283 132.72 326.058 132.258 326.745 131.681C326.848 131.579 326.982 131.516 327.126 131.503C327.269 131.489 327.413 131.525 327.533 131.606C327.657 131.678 327.756 131.788 327.815 131.919C327.875 132.05 327.892 132.196 327.865 132.338C327.692 133.331 327.904 134.353 328.459 135.196C328.547 135.319 328.594 135.467 328.594 135.619C328.594 135.77 328.547 135.917 328.459 136.041C328.37 136.149 328.252 136.229 328.119 136.272C327.986 136.316 327.844 136.32 327.708 136.285C326.858 136.059 318.069 138.08 317.137 138.093C317.137 138.093 309.036 139.606 308.185 140.632C308.056 140.708 307.909 140.747 307.76 140.747C307.611 140.747 307.464 140.708 307.335 140.632C307.225 140.535 307.143 140.41 307.099 140.27C307.055 140.13 307.05 139.98 307.084 139.838C307.32 138.885 307.43 137.904 307.41 136.923L302.293 112.883C301.933 112.073 301.461 111.317 300.892 110.638C300.779 110.535 300.707 110.394 300.691 110.242C300.675 110.09 300.715 109.937 300.804 109.812C300.882 109.681 300.998 109.578 301.137 109.516C301.276 109.455 301.431 109.438 301.58 109.468C304.22 109.898 306.926 109.335 309.174 107.886C308.942 108.067 309.762 107.717 309.974 107.886C310.1 107.97 310.196 108.091 310.25 108.232C310.303 108.373 310.312 108.527 310.275 108.674C309.982 109.513 309.851 110.4 309.887 111.288L314.828 134.521C315.035 135.503 320.809 133.945 324.449 133.051Z" fill="#FFF0E9"/>
<path d="M353.712 117.6C354.632 126.489 349.296 134.27 341.827 135.046C334.358 135.822 327.515 129.291 326.595 120.402C325.676 111.513 331.012 103.738 338.512 102.962C346.012 102.187 352.799 108.761 353.712 117.6ZM334.277 119.082C335.034 126.407 338.249 132.081 341.458 131.749C344.667 131.418 346.612 125.212 345.837 117.887C345.061 110.562 341.965 105.408 338.8 105.734C335.634 106.059 333.52 111.732 334.277 119.082Z" fill="#FFF0E9"/>
<path d="M372.242 132.019C372.28 132.106 372.324 132.15 372.367 132.237C372.469 132.34 372.532 132.475 372.545 132.618C372.559 132.762 372.522 132.906 372.442 133.026C372.358 133.138 372.236 133.216 372.099 133.244C371.962 133.273 371.82 133.251 371.698 133.182C369.197 132.205 366.428 132.161 363.898 133.057C363.757 133.111 363.603 133.121 363.456 133.088C363.309 133.055 363.175 132.979 363.072 132.869C362.95 132.782 362.858 132.66 362.806 132.52C362.755 132.379 362.747 132.226 362.784 132.081C363.04 131.273 363.142 130.424 363.084 129.579L357.204 105.183C356.818 104.265 356.304 103.406 355.678 102.631C355.572 102.522 355.507 102.38 355.493 102.228C355.479 102.077 355.518 101.926 355.603 101.799C355.691 101.692 355.816 101.621 355.953 101.599C356.09 101.577 356.23 101.606 356.347 101.68V101.636C359.25 102.644 361.821 102.681 364.104 101.762V101.805C364.247 101.744 364.406 101.725 364.56 101.75C364.714 101.776 364.857 101.845 364.973 101.949C365.097 102.045 365.191 102.174 365.243 102.322C365.295 102.469 365.304 102.629 365.267 102.781C365.009 103.589 364.908 104.438 364.967 105.283L369.577 124.4L374.813 105.44C374.897 104.599 374.823 103.751 374.594 102.938C374.561 102.784 374.574 102.624 374.63 102.477C374.687 102.33 374.785 102.204 374.913 102.112C375.032 102.012 375.177 101.947 375.331 101.926C375.485 101.905 375.641 101.929 375.783 101.993C376.408 102.356 379.267 102.268 379.661 102.056C379.78 101.986 379.921 101.962 380.057 101.988C380.193 102.015 380.315 102.09 380.399 102.199C380.48 102.327 380.514 102.48 380.496 102.63C380.478 102.781 380.408 102.92 380.299 103.025C379.65 103.781 379.11 104.623 378.691 105.527L372.023 129.698C371.961 130.53 371.861 131.443 372.242 132.019Z" fill="#FFF0E9"/>
<path d="M387.004 102.531C387.11 102.431 387.245 102.369 387.389 102.353C387.534 102.337 387.679 102.369 387.804 102.443L387.842 102.493C390.244 103.694 403.78 104.995 403.78 104.995C404.677 104.944 405.56 104.749 406.395 104.42C406.524 104.356 406.671 104.339 406.811 104.371C406.951 104.403 407.076 104.482 407.165 104.595C407.262 104.702 407.323 104.838 407.338 104.982C407.352 105.126 407.32 105.271 407.246 105.396C406.733 106.625 406.577 107.973 406.795 109.286C406.839 109.425 406.837 109.574 406.789 109.711C406.742 109.849 406.652 109.967 406.533 110.05C406.422 110.14 406.285 110.193 406.142 110.199C405.999 110.206 405.857 110.167 405.738 110.087C405.018 109.545 404.204 109.14 403.336 108.892C399.671 108.336 395.029 107.841 394.923 108.792L394.147 115.504C394.053 115.936 397.2 116.386 398.895 116.537C399.799 116.5 400.687 116.288 401.51 115.911C401.651 115.862 401.804 115.858 401.948 115.898C402.093 115.938 402.221 116.021 402.317 116.136C402.415 116.243 402.473 116.381 402.481 116.526C402.489 116.671 402.446 116.814 402.36 116.931C402.216 117.79 402.116 118.657 402.06 119.527C402.111 119.668 402.116 119.821 402.076 119.966C402.035 120.11 401.951 120.239 401.835 120.333C401.71 120.41 401.566 120.451 401.419 120.451C401.272 120.451 401.128 120.41 401.003 120.333C400.284 119.783 399.467 119.375 398.595 119.132C397.444 118.826 393.753 118.507 393.734 119.057L392.602 128.884C392.439 129.873 397.068 130.455 400.809 130.761C401.712 130.716 402.599 130.504 403.424 130.136C403.558 130.084 403.705 130.077 403.842 130.117C403.98 130.156 404.101 130.24 404.187 130.354C404.286 130.46 404.349 130.596 404.365 130.74C404.381 130.885 404.349 131.03 404.275 131.155C403.758 132.37 403.602 133.707 403.824 135.008C403.868 135.153 403.867 135.308 403.818 135.452C403.77 135.596 403.678 135.721 403.555 135.809C403.444 135.9 403.305 135.949 403.161 135.949C403.018 135.949 402.878 135.9 402.767 135.809C402.027 135.297 401.219 134.892 400.365 134.608C400.365 134.608 386.372 132.287 384.214 133.488C384.076 133.533 383.928 133.532 383.791 133.484C383.655 133.437 383.537 133.346 383.457 133.226C383.366 133.106 383.314 132.962 383.307 132.812C383.301 132.663 383.34 132.514 383.419 132.387C383.962 131.681 384.367 130.879 384.614 130.023L387.398 105.952C387.353 105.049 387.141 104.163 386.772 103.338C386.729 103.224 386.712 103.102 386.722 102.981C386.753 102.8 386.854 102.638 387.004 102.531Z" fill="#FFF0E9"/>
<path d="M430.203 129.329C429.673 129.303 429.142 129.377 428.639 129.548C428.556 129.583 428.461 129.584 428.377 129.55C428.292 129.516 428.225 129.45 428.189 129.366C428.151 129.265 428.136 129.156 428.145 129.048C428.154 128.94 428.186 128.835 428.239 128.741C429.307 127.116 429.868 125.211 429.853 123.267C429.858 123.159 429.887 123.053 429.939 122.957C429.991 122.862 430.065 122.78 430.153 122.717C430.228 122.67 430.315 122.65 430.402 122.659C430.49 122.668 430.572 122.706 430.635 122.767C430.958 123.196 431.359 123.561 431.817 123.843L445.579 127.903C446.116 127.91 446.649 127.821 447.155 127.64C447.242 127.622 447.333 127.633 447.412 127.673C447.492 127.713 447.555 127.778 447.593 127.859C447.632 127.96 447.648 128.069 447.639 128.177C447.63 128.285 447.597 128.39 447.543 128.484C446.475 130.109 445.913 132.013 445.929 133.957C445.921 134.065 445.891 134.169 445.839 134.263C445.787 134.357 445.715 134.438 445.629 134.502C445.592 134.527 445.551 134.545 445.507 134.554C445.463 134.563 445.418 134.564 445.374 134.555C445.33 134.546 445.289 134.529 445.252 134.503C445.215 134.478 445.184 134.446 445.16 134.408C444.827 133.994 444.422 133.645 443.965 133.376L430.203 129.329Z" fill="#FFF0E9"/>
<path d="M470.218 153.061C469.984 153.927 469.891 154.824 469.942 155.72C469.962 155.863 469.932 156.008 469.857 156.131C469.781 156.254 469.666 156.348 469.529 156.395C469.399 156.462 469.25 156.481 469.107 156.449C468.964 156.417 468.837 156.336 468.748 156.22C466.851 154.326 464.349 153.159 461.679 152.924C461.534 152.927 461.392 152.879 461.277 152.789C461.163 152.699 461.084 152.572 461.054 152.43C461.001 152.297 460.994 152.15 461.032 152.012C461.07 151.875 461.153 151.753 461.266 151.666C461.999 151.158 462.635 150.523 463.143 149.79L473.408 127.79C473.659 126.921 473.74 126.012 473.645 125.113C473.646 124.963 473.691 124.818 473.774 124.694C473.858 124.57 473.976 124.474 474.115 124.418C474.248 124.367 474.394 124.36 474.532 124.398C474.669 124.436 474.791 124.518 474.878 124.631C476.773 126.527 479.276 127.696 481.946 127.934C482.096 127.926 482.245 127.968 482.368 128.054C482.491 128.14 482.583 128.265 482.627 128.408C482.672 128.552 482.667 128.706 482.614 128.847C482.561 128.987 482.462 129.106 482.334 129.185C481.601 129.709 480.965 130.36 480.458 131.105L470.218 153.061Z" fill="#FFF0E9"/>
<path d="M506.356 173.811C507.171 174.183 508.041 174.422 508.933 174.517C509.083 174.507 509.232 174.554 509.348 174.649C509.464 174.744 509.54 174.881 509.558 175.03C509.595 175.169 509.586 175.317 509.533 175.451C509.481 175.585 509.386 175.698 509.264 175.774C508.428 176.34 507.839 177.204 507.619 178.189C507.589 178.34 507.513 178.478 507.401 178.583C507.289 178.689 507.146 178.757 506.994 178.777C506.854 178.787 506.715 178.758 506.591 178.693C506.467 178.627 506.364 178.529 506.293 178.408C505.868 177.639 498.311 172.71 497.648 172.053C497.648 172.053 490.936 167.274 489.61 167.374C489.464 167.333 489.332 167.253 489.229 167.143C489.125 167.033 489.053 166.896 489.022 166.748C489.016 166.602 489.049 166.457 489.119 166.328C489.188 166.199 489.291 166.091 489.416 166.016C490.268 165.523 491.05 164.919 491.743 164.221L505.505 143.854C505.832 143.03 506.042 142.165 506.131 141.283C506.129 141.132 506.182 140.985 506.279 140.871C506.377 140.756 506.513 140.68 506.662 140.657C506.811 140.621 506.966 140.632 507.108 140.689C507.249 140.746 507.369 140.847 507.45 140.976C508.973 143.178 511.257 144.738 513.862 145.355C513.574 145.311 514.394 145.662 514.412 145.937C514.438 146.084 514.418 146.236 514.354 146.372C514.291 146.507 514.186 146.62 514.056 146.694C513.248 147.07 512.517 147.591 511.898 148.232L498.612 167.924C498.049 168.744 503.184 171.815 506.356 173.811Z" fill="#FFF0E9"/>
<path d="M537.805 184.157C532.05 190.987 522.748 192.558 516.981 187.697C511.213 182.837 511.182 173.41 516.943 166.573C522.704 159.736 531.993 158.172 537.761 163.032C543.528 167.893 543.535 177.357 537.805 184.157ZM523.242 171.202C518.494 176.832 516.649 183.087 519.114 185.164C521.578 187.241 527.396 184.332 532.143 178.702C536.891 173.072 538.43 167.242 535.997 165.197C533.563 163.151 527.99 165.572 523.242 171.202Z" fill="#FFF0E9"/>
<path d="M540.328 207.476C540.29 207.564 540.29 207.626 540.259 207.72C540.262 207.867 540.212 208.011 540.119 208.125C540.027 208.24 539.897 208.318 539.752 208.346C539.616 208.363 539.478 208.331 539.363 208.255C539.248 208.179 539.164 208.065 539.127 207.933C538.067 205.47 536.155 203.471 533.741 202.303C533.605 202.24 533.49 202.138 533.411 202.01C533.332 201.882 533.292 201.734 533.296 201.584C533.273 201.435 533.294 201.283 533.358 201.147C533.421 201.011 533.524 200.897 533.653 200.82C534.415 200.432 535.096 199.904 535.661 199.263L548.891 177.995C549.271 177.073 549.521 176.102 549.635 175.111C549.642 174.962 549.699 174.819 549.797 174.706C549.894 174.592 550.027 174.515 550.174 174.486C550.424 174.429 550.662 174.617 550.799 174.93L550.83 174.898C552.15 177.676 553.927 179.534 556.185 180.528L556.153 180.559C556.294 180.624 556.415 180.725 556.503 180.852C556.592 180.979 556.645 181.127 556.657 181.281C556.67 181.436 556.64 181.591 556.573 181.73C556.505 181.869 556.401 181.988 556.273 182.073C555.511 182.461 554.829 182.989 554.264 183.631L543.887 200.339L561.064 190.756C561.73 190.22 562.289 189.562 562.709 188.817C562.798 188.688 562.922 188.587 563.066 188.525C563.209 188.463 563.368 188.443 563.522 188.466C563.678 188.482 563.825 188.542 563.948 188.638C564.071 188.734 564.164 188.863 564.217 189.011C564.417 189.724 566.469 191.682 566.894 191.813C567.201 191.944 567.376 192.194 567.313 192.438C567.278 192.587 567.192 192.718 567.072 192.812C566.951 192.905 566.802 192.954 566.65 192.951C565.656 193.024 564.677 193.235 563.741 193.577L541.848 205.794C541.185 206.231 540.465 206.813 540.328 207.476Z" fill="#FFF0E9"/>
<path d="M571.772 197.675C571.919 197.678 572.061 197.732 572.174 197.826C572.288 197.92 572.366 198.05 572.397 198.194V198.256C573.204 200.821 581.655 211.474 581.655 211.474C582.313 212.083 583.065 212.581 583.882 212.95C584.017 212.999 584.131 213.093 584.205 213.216C584.279 213.339 584.308 213.483 584.288 213.626C584.28 213.772 584.226 213.912 584.132 214.024C584.039 214.137 583.912 214.216 583.769 214.251C582.521 214.729 581.436 215.554 580.642 216.628C580.571 216.754 580.462 216.855 580.33 216.915C580.199 216.976 580.052 216.994 579.91 216.966C579.767 216.949 579.634 216.888 579.529 216.79C579.424 216.692 579.354 216.563 579.328 216.422C579.223 215.524 578.951 214.654 578.527 213.857C576.382 210.829 573.523 207.151 572.76 207.733L567.386 211.83C567.017 212.055 568.875 214.639 569.939 215.965C570.592 216.592 571.361 217.087 572.203 217.422C572.336 217.489 572.446 217.595 572.516 217.726C572.587 217.857 572.615 218.006 572.597 218.154C572.588 218.299 572.529 218.437 572.43 218.543C572.33 218.649 572.197 218.718 572.053 218.736C571.335 219.23 570.641 219.761 569.976 220.325C569.909 220.459 569.802 220.568 569.67 220.639C569.538 220.71 569.387 220.738 569.238 220.719C569.094 220.678 568.965 220.598 568.864 220.487C568.763 220.377 568.696 220.24 568.669 220.093C568.565 219.197 568.291 218.329 567.862 217.535C567.286 216.491 564.935 213.626 564.547 213.976L556.684 219.975C555.858 220.55 558.654 224.285 561.031 227.181C561.688 227.801 562.453 228.295 563.289 228.638C563.418 228.7 563.523 228.801 563.59 228.927C563.656 229.053 563.68 229.198 563.658 229.339C563.652 229.484 563.598 229.624 563.506 229.737C563.413 229.85 563.287 229.929 563.145 229.964C561.913 230.436 560.843 231.253 560.061 232.316C559.987 232.448 559.874 232.553 559.737 232.618C559.601 232.683 559.447 232.704 559.298 232.679C559.155 232.662 559.022 232.596 558.922 232.493C558.821 232.389 558.76 232.254 558.748 232.11C558.6 231.22 558.33 230.355 557.947 229.539C557.947 229.539 549.909 217.86 547.551 217.135C547.422 217.068 547.32 216.961 547.259 216.829C547.198 216.698 547.181 216.55 547.213 216.409C547.233 216.257 547.3 216.116 547.404 216.004C547.508 215.892 547.645 215.815 547.795 215.783C548.67 215.679 549.518 215.414 550.297 215.002L569.564 200.308C570.182 199.651 570.674 198.885 571.015 198.05C571.07 197.942 571.147 197.846 571.24 197.768C571.318 197.718 571.405 197.684 571.496 197.667C571.587 197.651 571.681 197.654 571.772 197.675Z" fill="#FFF0E9"/>
<path d="M582.442 247.367C582.091 246.964 581.666 246.633 581.191 246.391C581.109 246.355 581.044 246.289 581.01 246.206C580.976 246.123 580.976 246.03 581.009 245.947C581.057 245.85 581.125 245.764 581.208 245.695C581.291 245.626 581.387 245.575 581.491 245.546C583.403 245.191 585.166 244.272 586.551 242.907C586.636 242.833 586.736 242.779 586.845 242.751C586.954 242.723 587.067 242.72 587.177 242.744C587.262 242.766 587.337 242.815 587.392 242.884C587.446 242.953 587.476 243.038 587.477 243.125C587.395 243.657 587.41 244.2 587.521 244.727L594.152 257.438C594.509 257.826 594.933 258.148 595.403 258.389C595.476 258.439 595.531 258.513 595.557 258.598C595.583 258.683 595.579 258.775 595.547 258.858C595.502 258.955 595.436 259.041 595.354 259.109C595.272 259.177 595.175 259.226 595.071 259.252C593.158 259.609 591.394 260.528 590.004 261.891C589.919 261.963 589.818 262.016 589.71 262.045C589.602 262.074 589.489 262.079 589.379 262.06C589.292 262.039 589.216 261.985 589.168 261.909C589.12 261.833 589.104 261.742 589.122 261.654C589.19 261.127 589.161 260.593 589.035 260.077L582.442 247.367Z" fill="#FFF0E9"/>
<path d="M593.158 292.643C592.37 293.072 591.658 293.627 591.05 294.288C590.961 294.4 590.835 294.478 590.695 294.509C590.555 294.539 590.409 294.521 590.281 294.457C590.142 294.41 590.024 294.316 589.948 294.192C589.871 294.067 589.841 293.92 589.862 293.775C589.908 291.093 589.008 288.48 587.322 286.394C587.217 286.292 587.151 286.157 587.135 286.012C587.119 285.867 587.154 285.721 587.234 285.599C587.295 285.469 587.395 285.361 587.522 285.293C587.648 285.224 587.793 285.198 587.935 285.218C588.821 285.398 589.733 285.413 590.625 285.262L613.582 277.373C614.381 276.952 615.091 276.378 615.671 275.685C615.779 275.581 615.915 275.512 616.062 275.487C616.209 275.461 616.36 275.48 616.497 275.541C616.628 275.599 616.737 275.7 616.806 275.826C616.875 275.953 616.9 276.099 616.878 276.241C616.831 278.921 617.728 281.531 619.412 283.616C619.516 283.72 619.584 283.854 619.605 284C619.626 284.145 619.599 284.293 619.528 284.421C619.458 284.55 619.347 284.652 619.213 284.712C619.079 284.773 618.929 284.787 618.786 284.755C617.903 284.601 616.999 284.601 616.115 284.755L593.158 292.643Z" fill="#FFF0E9"/>
<path d="M603.3 333.052C603.597 333.896 604.031 334.686 604.582 335.391C604.68 335.497 604.738 335.633 604.747 335.777C604.756 335.92 604.716 336.063 604.632 336.18C604.555 336.302 604.442 336.397 604.309 336.452C604.176 336.507 604.028 336.519 603.888 336.486C602.901 336.278 601.871 336.454 601.01 336.98C600.89 337.063 600.746 337.107 600.6 337.104C600.453 337.101 600.311 337.052 600.194 336.965C600.077 336.877 599.99 336.755 599.945 336.615C599.901 336.475 599.902 336.325 599.947 336.186C600.197 335.347 598.508 326.484 598.521 325.552C598.521 325.552 597.307 317.42 596.313 316.513C596.242 316.381 596.208 316.233 596.213 316.083C596.219 315.934 596.264 315.788 596.344 315.662C596.445 315.557 596.573 315.481 596.714 315.441C596.855 315.402 597.003 315.4 597.145 315.437C598.09 315.712 599.069 315.857 600.053 315.868L624.262 311.64C625.084 311.309 625.857 310.865 626.557 310.32C626.664 310.212 626.807 310.146 626.96 310.136C627.112 310.125 627.262 310.171 627.383 310.264C627.512 310.345 627.612 310.465 627.668 310.607C627.724 310.749 627.734 310.904 627.696 311.052C627.174 313.674 627.639 316.396 629.003 318.696C628.834 318.464 629.153 319.29 628.966 319.503C628.877 319.623 628.752 319.713 628.61 319.76C628.468 319.807 628.315 319.809 628.171 319.765C627.341 319.445 626.459 319.281 625.569 319.284L602.174 323.375C601.186 323.55 602.537 329.38 603.3 333.052Z" fill="#FFF0E9"/>
<path d="M617.668 362.89C608.754 363.484 601.173 357.885 600.673 350.379C600.172 342.873 606.928 336.286 615.86 335.698C624.793 335.11 632.356 340.702 632.856 348.209C633.356 355.715 626.538 362.302 617.668 362.89ZM616.899 343.417C609.549 343.911 603.763 346.914 603.975 350.129C604.188 353.344 610.318 355.521 617.668 355.033C625.018 354.545 630.285 351.612 630.073 348.44C629.86 345.269 624.249 342.929 616.899 343.417Z" fill="#FFF0E9"/>
<path d="M602.642 380.886C602.548 380.93 602.504 380.968 602.416 381.011C602.311 381.109 602.175 381.168 602.031 381.177C601.888 381.186 601.746 381.145 601.628 381.062C601.517 380.977 601.441 380.854 601.415 380.717C601.388 380.579 601.413 380.437 601.485 380.317C602.526 377.842 602.639 375.075 601.803 372.523C601.767 372.38 601.767 372.23 601.803 372.087C601.84 371.944 601.911 371.812 602.011 371.703C602.111 371.594 602.236 371.512 602.376 371.464C602.516 371.417 602.665 371.404 602.811 371.428C603.615 371.706 604.463 371.831 605.313 371.797L629.821 366.518C630.749 366.154 631.62 365.661 632.411 365.054C632.523 364.952 632.667 364.891 632.818 364.882C632.969 364.873 633.119 364.916 633.243 365.004C633.347 365.095 633.415 365.221 633.433 365.358C633.452 365.495 633.42 365.633 633.343 365.749H633.387C632.311 368.626 632.204 371.197 633.068 373.499H633.024C633.081 373.643 633.097 373.801 633.068 373.954C633.039 374.107 632.968 374.249 632.861 374.362C632.761 374.483 632.628 374.572 632.478 374.621C632.329 374.67 632.169 374.675 632.017 374.637C631.214 374.356 630.365 374.231 629.515 374.268L610.286 378.409L629.114 384.108C629.961 384.218 630.821 384.165 631.648 383.952C631.802 383.928 631.959 383.947 632.103 384.006C632.247 384.065 632.373 384.162 632.466 384.286C632.56 384.41 632.618 384.558 632.635 384.712C632.651 384.867 632.626 385.024 632.561 385.165C632.186 385.791 632.198 388.643 632.398 389.043C632.465 389.164 632.486 389.304 632.457 389.438C632.429 389.573 632.352 389.693 632.242 389.775C632.112 389.853 631.959 389.883 631.808 389.862C631.658 389.84 631.52 389.768 631.416 389.656C630.677 388.989 629.85 388.427 628.958 387.986L604.956 380.711C604.13 380.642 603.224 380.517 602.642 380.886Z" fill="#FFF0E9"/>
<path d="M631.528 396.706C631.622 396.817 631.678 396.956 631.687 397.101C631.696 397.247 631.658 397.391 631.578 397.513L631.528 397.544C630.246 399.909 628.445 413.389 628.445 413.389C628.463 414.285 628.626 415.172 628.926 416.016C628.985 416.148 628.997 416.296 628.959 416.435C628.921 416.574 628.837 416.695 628.72 416.779C628.609 416.871 628.471 416.926 628.328 416.935C628.184 416.944 628.041 416.907 627.919 416.83C626.708 416.271 625.363 416.067 624.041 416.241C623.902 416.278 623.754 416.269 623.62 416.217C623.486 416.164 623.373 416.069 623.296 415.947C623.212 415.832 623.166 415.693 623.166 415.55C623.166 415.407 623.212 415.268 623.296 415.153C623.868 414.453 624.304 413.653 624.585 412.795C625.273 409.154 625.936 404.538 624.985 404.394L618.311 403.368C617.885 403.262 617.316 406.396 617.104 408.078C617.109 408.984 617.287 409.88 617.629 410.718C617.672 410.861 617.671 411.013 617.625 411.155C617.579 411.297 617.491 411.422 617.373 411.513C617.261 411.605 617.12 411.655 616.975 411.655C616.831 411.655 616.69 411.605 616.578 411.513C615.29 411.275 615.252 411.268 613.995 411.118C613.851 411.163 613.697 411.162 613.554 411.116C613.411 411.07 613.285 410.982 613.194 410.862C613.125 410.733 613.092 410.587 613.098 410.441C613.105 410.294 613.151 410.152 613.231 410.03C613.809 409.334 614.247 408.533 614.52 407.672C614.87 406.533 615.302 402.855 614.777 402.817L605 401.323C604.018 401.129 603.267 405.733 602.829 409.455C602.841 410.359 603.019 411.254 603.354 412.094C603.39 412.231 603.385 412.375 603.339 412.509C603.293 412.643 603.209 412.76 603.096 412.846C602.984 412.932 602.849 412.983 602.708 412.993C602.567 413.003 602.427 412.971 602.304 412.901C601.108 412.343 599.777 412.139 598.469 412.313C598.323 412.352 598.167 412.344 598.025 412.291C597.883 412.239 597.761 412.144 597.675 412.019C597.589 411.903 597.547 411.762 597.553 411.618C597.56 411.475 597.616 411.338 597.712 411.231C598.241 410.504 598.664 409.706 598.969 408.86C598.969 408.86 601.803 394.967 600.684 392.771C600.645 392.632 600.652 392.484 600.703 392.349C600.755 392.213 600.849 392.099 600.971 392.021C601.094 391.935 601.24 391.889 601.39 391.889C601.54 391.889 601.686 391.935 601.809 392.021C602.499 392.578 603.286 393.003 604.13 393.272L628.082 396.931C628.984 396.924 629.877 396.748 630.715 396.412C630.83 396.373 630.951 396.36 631.072 396.375C631.261 396.421 631.425 396.54 631.528 396.706Z" fill="#FFF0E9"/>
<path d="M603.167 438.886C603.21 438.357 603.155 437.825 603.004 437.316C602.973 437.231 602.976 437.138 603.012 437.055C603.048 436.972 603.115 436.906 603.198 436.872C603.301 436.838 603.411 436.827 603.519 436.84C603.627 436.853 603.731 436.889 603.823 436.947C605.41 438.074 607.295 438.706 609.241 438.761C609.348 438.769 609.452 438.802 609.544 438.858C609.636 438.913 609.715 438.989 609.772 439.08C609.818 439.156 609.835 439.245 609.823 439.333C609.81 439.42 609.768 439.501 609.704 439.562C609.266 439.87 608.888 440.256 608.59 440.7L604.03 454.293C603.998 454.83 604.066 455.369 604.23 455.882C604.246 455.968 604.231 456.057 604.189 456.135C604.147 456.212 604.08 456.273 603.999 456.307C603.896 456.343 603.786 456.356 603.678 456.344C603.57 456.332 603.466 456.296 603.373 456.238C601.79 455.109 599.906 454.478 597.962 454.424C597.856 454.41 597.753 454.375 597.661 454.32C597.568 454.265 597.488 454.192 597.424 454.105C597.378 454.028 597.363 453.935 597.385 453.847C597.406 453.76 597.46 453.684 597.537 453.636C597.964 453.32 598.329 452.927 598.613 452.479L603.167 438.886Z" fill="#FFF0E9"/>
<path d="M577.979 478.007C577.123 477.738 576.229 477.611 575.333 477.631C575.19 477.645 575.047 477.61 574.928 477.531C574.808 477.453 574.719 477.336 574.676 477.2C574.612 477.067 574.596 476.915 574.633 476.772C574.669 476.629 574.756 476.503 574.876 476.418C576.839 474.592 578.097 472.134 578.429 469.474C578.427 469.326 578.477 469.182 578.571 469.067C578.665 468.953 578.796 468.875 578.942 468.849C579.078 468.803 579.226 468.801 579.364 468.845C579.501 468.889 579.621 468.976 579.705 469.093C580.187 469.855 580.806 470.521 581.532 471.057L603.144 482.123C604.002 482.406 604.907 482.521 605.809 482.46C605.958 482.464 606.103 482.513 606.224 482.601C606.345 482.69 606.435 482.813 606.484 482.955C606.538 483.089 606.544 483.237 606.5 483.375C606.457 483.513 606.367 483.632 606.246 483.711C604.282 485.536 603.022 487.994 602.687 490.655C602.685 490.795 602.639 490.932 602.554 491.044C602.47 491.156 602.352 491.239 602.218 491.28C602.073 491.327 601.916 491.322 601.774 491.268C601.632 491.213 601.513 491.111 601.436 490.98C600.927 490.234 600.292 489.582 599.559 489.054L577.979 478.007Z" fill="#FFF0E9"/>
<path d="M555.922 513.355C555.518 514.156 555.249 515.019 555.127 515.907C555.118 516.052 555.06 516.188 554.962 516.294C554.864 516.4 554.732 516.469 554.589 516.489C554.448 516.52 554.301 516.505 554.17 516.447C554.038 516.388 553.929 516.289 553.857 516.164C553.32 515.312 552.479 514.695 551.505 514.437C551.36 514.41 551.227 514.338 551.126 514.231C551.024 514.124 550.959 513.987 550.94 513.841C550.92 513.695 550.947 513.546 551.018 513.416C551.088 513.286 551.197 513.182 551.33 513.118C552.112 512.717 557.316 505.349 557.998 504.717C557.998 504.717 563.003 498.18 562.971 496.848C563.015 496.706 563.096 496.579 563.206 496.48C563.316 496.38 563.452 496.313 563.597 496.284C563.744 496.281 563.889 496.318 564.016 496.392C564.143 496.466 564.247 496.574 564.316 496.704C564.778 497.572 565.352 498.375 566.024 499.093L585.878 513.581C586.688 513.942 587.546 514.189 588.424 514.312C588.58 514.312 588.73 514.369 588.846 514.473C588.961 514.577 589.034 514.721 589.05 514.875C589.079 515.024 589.061 515.178 588.998 515.316C588.935 515.454 588.831 515.569 588.699 515.645C586.448 517.091 584.813 519.319 584.108 521.9C584.158 521.612 583.783 522.419 583.483 522.432C583.334 522.45 583.183 522.422 583.05 522.353C582.918 522.284 582.809 522.176 582.738 522.044C582.395 521.223 581.901 520.474 581.281 519.836L562.095 505.818C561.288 505.242 558.036 510.259 555.922 513.355Z" fill="#FFF0E9"/>
<path d="M544.434 544.407C537.816 538.408 536.59 529.056 541.656 523.47C546.723 517.884 556.144 518.197 562.762 524.202C569.38 530.207 570.606 539.553 565.539 545.132C560.472 550.712 551.021 550.38 544.434 544.407ZM557.908 530.332C552.453 525.384 546.273 523.307 544.108 525.697C541.944 528.086 544.634 533.998 550.095 538.946C555.556 543.894 561.311 545.652 563.444 543.293C565.577 540.935 563.362 535.274 557.908 530.332Z" fill="#FFF0E9"/>
<path d="M521.048 546.083C520.961 546.046 520.898 546.04 520.804 546.002C520.662 545.994 520.527 545.937 520.421 545.842C520.315 545.746 520.245 545.617 520.223 545.476C520.206 545.337 520.242 545.196 520.323 545.081C520.404 544.965 520.524 544.884 520.661 544.851C523.162 543.883 525.232 542.047 526.49 539.678C526.559 539.544 526.666 539.433 526.797 539.358C526.928 539.284 527.078 539.249 527.229 539.259C527.377 539.242 527.528 539.269 527.661 539.337C527.795 539.404 527.905 539.51 527.979 539.64C528.338 540.416 528.841 541.116 529.462 541.705L550.261 555.698C551.167 556.113 552.127 556.399 553.113 556.548C553.265 556.555 553.411 556.614 553.525 556.715C553.639 556.817 553.714 556.955 553.739 557.105C553.789 557.355 553.588 557.593 553.269 557.699L553.301 557.731C550.48 558.951 548.559 560.658 547.502 562.879L547.471 562.847C547.401 562.985 547.295 563.101 547.166 563.184C547.036 563.268 546.886 563.315 546.732 563.321C546.578 563.328 546.425 563.293 546.289 563.22C546.153 563.148 546.038 563.041 545.957 562.91C545.597 562.135 545.094 561.435 544.474 560.846L528.148 549.868L537.106 567.383C537.619 568.066 538.255 568.648 538.982 569.097C539.106 569.192 539.202 569.318 539.259 569.463C539.317 569.608 539.334 569.766 539.309 569.92C539.284 570.074 539.218 570.219 539.117 570.338C539.017 570.457 538.886 570.547 538.738 570.598C538.019 570.767 535.986 572.75 535.842 573.169C535.698 573.469 535.442 573.638 535.217 573.563C535.071 573.523 534.943 573.434 534.856 573.311C534.768 573.188 534.725 573.038 534.735 572.887C534.702 571.891 534.531 570.903 534.228 569.953L522.812 547.635C522.262 546.984 521.718 546.246 521.048 546.083Z" fill="#FFF0E9"/>
<path d="M529.698 577.866C529.685 578.01 529.625 578.146 529.528 578.253C529.431 578.36 529.302 578.433 529.16 578.461H529.098C526.502 579.174 515.549 587.218 515.549 587.218C514.915 587.851 514.388 588.585 513.991 589.389C513.937 589.523 513.839 589.634 513.712 589.703C513.586 589.773 513.439 589.797 513.297 589.77C513.153 589.754 513.019 589.692 512.912 589.594C512.805 589.497 512.732 589.368 512.703 589.226C512.264 587.967 511.479 586.857 510.438 586.023C510.315 585.95 510.218 585.838 510.163 585.705C510.107 585.572 510.097 585.425 510.132 585.285C510.152 585.143 510.218 585.011 510.319 584.91C510.421 584.808 510.553 584.743 510.695 584.722C511.59 584.646 512.464 584.404 513.272 584.009C516.4 581.976 520.153 579.249 519.602 578.467L515.705 572.95C515.493 572.568 512.84 574.332 511.477 575.352C510.828 575.98 510.308 576.727 509.944 577.554C509.873 577.686 509.762 577.792 509.628 577.859C509.494 577.927 509.342 577.951 509.193 577.929C509.05 577.909 508.917 577.843 508.815 577.74C508.714 577.637 508.649 577.503 508.631 577.36C507.911 576.271 507.886 576.234 507.123 575.227C506.991 575.155 506.885 575.044 506.819 574.91C506.753 574.775 506.73 574.624 506.754 574.476C506.798 574.336 506.88 574.211 506.99 574.114C507.1 574.017 507.235 573.952 507.379 573.925C508.281 573.86 509.161 573.618 509.969 573.213C511.033 572.675 513.985 570.435 513.647 570.028L507.936 561.953C507.392 561.109 503.558 563.76 500.574 566.031C499.933 566.669 499.412 567.417 499.035 568.239C498.963 568.362 498.856 568.46 498.728 568.521C498.6 568.582 498.456 568.604 498.316 568.583C498.176 568.562 498.045 568.5 497.94 568.404C497.835 568.308 497.761 568.183 497.727 568.046C497.297 566.797 496.52 565.697 495.488 564.874C495.358 564.796 495.256 564.679 495.196 564.54C495.135 564.401 495.119 564.247 495.15 564.098C495.174 563.957 495.247 563.828 495.355 563.733C495.463 563.639 495.601 563.584 495.745 563.579C496.636 563.458 497.507 563.219 498.334 562.866C498.334 562.866 510.307 555.26 511.114 552.926C511.182 552.797 511.293 552.696 511.428 552.64C511.563 552.584 511.713 552.577 511.852 552.62C512.003 552.649 512.142 552.725 512.247 552.837C512.353 552.95 512.42 553.092 512.44 553.245C512.505 554.133 512.736 555.001 513.122 555.804L527.109 575.589C527.741 576.237 528.49 576.759 529.317 577.128C529.422 577.185 529.514 577.264 529.586 577.36C529.686 577.509 529.726 577.689 529.698 577.866Z" fill="#FFF0E9"/>
<path d="M479.625 586.73C480.036 586.395 480.382 585.985 480.644 585.523C480.662 585.482 480.688 585.445 480.721 585.415C480.754 585.384 480.792 585.36 480.834 585.344C480.876 585.329 480.921 585.322 480.965 585.323C481.01 585.325 481.054 585.335 481.095 585.354C481.189 585.405 481.273 585.475 481.338 585.561C481.404 585.646 481.451 585.744 481.476 585.848C481.762 587.772 482.616 589.567 483.928 591.003C483.998 591.09 484.047 591.191 484.072 591.299C484.097 591.407 484.097 591.52 484.072 591.628C484.046 591.713 483.992 591.786 483.92 591.837C483.847 591.888 483.76 591.914 483.672 591.91C483.145 591.812 482.604 591.812 482.077 591.91L469.128 598.071C468.721 598.423 468.381 598.847 468.127 599.322C468.074 599.392 467.999 599.441 467.914 599.464C467.829 599.487 467.739 599.481 467.658 599.447C467.562 599.399 467.477 599.329 467.411 599.244C467.345 599.158 467.299 599.059 467.277 598.953C466.993 597.03 466.141 595.235 464.831 593.799C464.761 593.712 464.712 593.611 464.687 593.503C464.662 593.394 464.662 593.282 464.687 593.173C464.698 593.13 464.717 593.09 464.744 593.054C464.771 593.018 464.804 592.988 464.842 592.965C464.881 592.943 464.923 592.928 464.968 592.922C465.012 592.915 465.057 592.918 465.1 592.929C465.623 593.016 466.157 593.005 466.676 592.898L479.625 586.73Z" fill="#FFF0E9"/>
<path d="M425.005 598.797C424.193 599.177 423.447 599.686 422.797 600.304C422.701 600.41 422.572 600.481 422.431 600.504C422.29 600.527 422.145 600.5 422.021 600.429C421.89 600.368 421.783 600.266 421.714 600.139C421.645 600.012 421.619 599.866 421.639 599.723C421.75 598.72 421.473 597.712 420.864 596.908C420.769 596.796 420.712 596.657 420.7 596.512C420.688 596.366 420.722 596.22 420.797 596.094C420.872 595.968 420.985 595.869 421.119 595.811C421.253 595.753 421.403 595.738 421.546 595.769C422.409 595.938 431.06 593.373 431.986 593.298C431.986 593.298 439.974 591.278 440.743 590.171C440.859 590.072 441.003 590.014 441.154 590.003C441.306 589.992 441.457 590.03 441.585 590.111C441.713 590.192 441.813 590.312 441.868 590.453C441.924 590.594 441.933 590.749 441.894 590.896C441.716 591.861 441.668 592.846 441.751 593.824L448.369 617.5C448.778 618.286 449.296 619.01 449.908 619.652C450.02 619.752 450.095 619.888 450.12 620.037C450.145 620.186 450.119 620.34 450.045 620.471C449.977 620.607 449.867 620.718 449.733 620.787C449.598 620.857 449.445 620.882 449.295 620.859C446.623 620.592 443.948 621.328 441.788 622.923C442.007 622.73 441.212 623.124 440.987 622.961C440.857 622.886 440.755 622.771 440.693 622.635C440.631 622.498 440.614 622.345 440.643 622.198C440.879 621.339 440.954 620.444 440.862 619.558L434.469 596.682C434.244 595.75 428.583 597.671 425.005 598.797Z" fill="#FFF0E9"/>
<path d="M396.74 616.042C395.27 607.229 400.105 599.153 407.543 597.902C414.98 596.651 422.18 602.75 423.65 611.563C425.12 620.377 420.285 628.453 412.847 629.704C405.41 630.955 398.204 624.806 396.74 616.042ZM416.044 613.353C414.83 606.084 411.271 600.623 408.087 601.155C404.903 601.687 403.352 607.998 404.565 615.267C405.779 622.536 409.207 627.483 412.347 626.958C415.487 626.433 417.251 620.615 416.044 613.353Z" fill="#FFF0E9"/>
<path d="M377.35 602.831C377.306 602.744 377.257 602.706 377.213 602.619C377.105 602.524 377.034 602.395 377.01 602.254C376.986 602.113 377.011 601.968 377.081 601.843C377.154 601.724 377.269 601.636 377.402 601.595C377.536 601.555 377.68 601.565 377.807 601.624C380.371 602.42 383.136 602.264 385.595 601.186C385.732 601.124 385.885 601.103 386.034 601.126C386.183 601.15 386.322 601.216 386.433 601.318C386.561 601.396 386.663 601.51 386.725 601.646C386.787 601.782 386.808 601.933 386.783 602.081C386.585 602.913 386.545 603.774 386.664 604.621L394.296 628.497C394.745 629.386 395.32 630.205 396.003 630.93C396.115 631.033 396.189 631.171 396.212 631.321C396.236 631.47 396.209 631.624 396.135 631.756C396.054 631.868 395.936 631.948 395.801 631.979C395.666 632.01 395.525 631.991 395.403 631.925V631.969C392.438 631.181 389.867 631.343 387.659 632.407V632.363C387.518 632.436 387.36 632.468 387.202 632.457C387.044 632.446 386.892 632.392 386.763 632.3C386.634 632.208 386.532 632.083 386.47 631.937C386.407 631.791 386.386 631.632 386.408 631.475C386.607 630.643 386.647 629.781 386.527 628.935L380.534 610.2L376.694 629.492C376.669 630.344 376.804 631.192 377.094 631.994C377.13 632.144 377.126 632.302 377.08 632.45C377.035 632.598 376.951 632.731 376.836 632.835C376.722 632.94 376.581 633.011 376.429 633.043C376.278 633.074 376.12 633.064 375.974 633.013C375.305 632.701 372.484 633.013 372.102 633.232C371.989 633.312 371.85 633.347 371.713 633.33C371.576 633.314 371.449 633.248 371.358 633.145C371.269 633.022 371.224 632.873 371.231 632.722C371.238 632.571 371.296 632.427 371.395 632.313C371.989 631.512 372.469 630.632 372.822 629.698L377.719 605.115C377.738 604.295 377.776 603.401 377.35 602.831Z" fill="#FFF0E9"/>
<path d="M364.441 633.119C364.341 633.225 364.209 633.296 364.066 633.32C363.922 633.344 363.775 633.319 363.646 633.251L363.609 633.207C361.107 632.162 347.545 631.7 347.545 631.7C346.653 631.803 345.785 632.053 344.974 632.438C344.849 632.51 344.702 632.536 344.56 632.512C344.417 632.488 344.287 632.415 344.192 632.306C344.089 632.206 344.021 632.076 343.997 631.934C343.974 631.792 343.996 631.647 344.061 631.518C344.501 630.257 344.572 628.897 344.267 627.596C344.218 627.461 344.213 627.314 344.252 627.176C344.291 627.038 344.373 626.916 344.486 626.827C344.59 626.728 344.723 626.666 344.865 626.649C345.007 626.632 345.151 626.661 345.274 626.733C346.036 627.236 346.884 627.593 347.777 627.784C351.467 628.109 356.127 628.315 356.177 627.358L356.534 620.609C356.603 620.177 353.406 619.921 351.73 619.877C350.83 619.967 349.957 620.233 349.159 620.659C349.021 620.715 348.868 620.729 348.722 620.698C348.576 620.666 348.443 620.592 348.34 620.484C348.234 620.383 348.166 620.249 348.149 620.104C348.132 619.959 348.166 619.812 348.246 619.689C348.358 618.388 348.365 618.345 348.39 617.081C348.331 616.944 348.315 616.791 348.345 616.645C348.376 616.498 348.45 616.365 348.559 616.262C348.68 616.18 348.822 616.133 348.968 616.125C349.115 616.117 349.26 616.149 349.39 616.218C350.149 616.726 350.998 617.083 351.892 617.269C353.056 617.5 356.765 617.569 356.747 617.043L357.272 607.166C357.372 606.165 352.718 605.878 348.965 605.809C348.067 605.909 347.196 606.174 346.394 606.591C346.261 606.64 346.116 606.649 345.978 606.617C345.84 606.584 345.714 606.512 345.617 606.408C345.521 606.305 345.457 606.174 345.433 606.034C345.41 605.894 345.429 605.751 345.487 605.621C345.923 604.376 345.994 603.033 345.694 601.749C345.64 601.608 345.632 601.454 345.67 601.309C345.708 601.163 345.791 601.033 345.906 600.936C346.012 600.838 346.148 600.78 346.291 600.771C346.435 600.762 346.577 600.802 346.694 600.886C347.475 601.353 348.317 601.707 349.197 601.937C349.197 601.937 363.302 603.382 365.379 602.056C365.514 602.002 365.662 601.994 365.802 602.033C365.942 602.071 366.066 602.154 366.155 602.268C366.253 602.381 366.313 602.522 366.329 602.671C366.345 602.819 366.314 602.969 366.242 603.1C365.744 603.839 365.39 604.664 365.197 605.534L363.909 629.729C364.012 630.626 364.277 631.498 364.691 632.3C364.739 632.413 364.762 632.534 364.76 632.657C364.742 632.752 364.704 632.842 364.649 632.922C364.594 633.002 364.523 633.069 364.441 633.119Z" fill="#FFF0E9"/>
<path d="M319.656 609.068C320.186 609.057 320.71 608.949 321.201 608.749C321.282 608.709 321.376 608.702 321.463 608.73C321.549 608.758 321.621 608.819 321.664 608.899C321.708 608.997 321.731 609.104 321.731 609.212C321.731 609.32 321.708 609.426 321.664 609.524C320.704 611.215 320.268 613.153 320.413 615.092C320.413 615.199 320.39 615.305 320.344 615.403C320.299 615.5 320.233 615.586 320.15 615.655C320.079 615.707 319.994 615.736 319.906 615.736C319.818 615.736 319.732 615.707 319.662 615.655C319.31 615.247 318.886 614.908 318.411 614.654L304.43 611.464C303.893 611.49 303.366 611.613 302.873 611.826C302.788 611.848 302.698 611.841 302.617 611.806C302.537 611.771 302.47 611.71 302.428 611.633C302.38 611.535 302.355 611.428 302.355 611.32C302.355 611.211 302.38 611.104 302.428 611.007C303.385 609.317 303.82 607.382 303.68 605.446C303.68 605.338 303.704 605.231 303.749 605.133C303.794 605.035 303.86 604.947 303.942 604.877C303.977 604.849 304.018 604.829 304.061 604.818C304.104 604.806 304.149 604.803 304.193 604.809C304.237 604.815 304.28 604.829 304.319 604.852C304.357 604.874 304.391 604.904 304.418 604.939C304.772 605.333 305.196 605.657 305.669 605.896L319.656 609.068Z" fill="#FFF0E9"/>
<path d="M278.249 587.887C278.429 587.009 278.467 586.107 278.361 585.216C278.326 585.076 278.343 584.928 278.41 584.8C278.477 584.672 278.589 584.573 278.724 584.522C278.85 584.446 278.999 584.417 279.144 584.44C279.29 584.463 279.422 584.536 279.519 584.647C281.53 586.42 284.101 587.428 286.781 587.493C286.928 587.477 287.075 587.514 287.198 587.596C287.32 587.679 287.41 587.802 287.451 587.944C287.509 588.074 287.524 588.22 287.493 588.359C287.463 588.499 287.389 588.625 287.282 588.719C286.572 589.279 285.97 589.964 285.505 590.74L276.641 613.334C276.445 614.218 276.42 615.131 276.566 616.024C276.578 616.172 276.544 616.32 276.469 616.449C276.394 616.577 276.282 616.68 276.147 616.743C276.018 616.811 275.87 616.832 275.727 616.803C275.584 616.773 275.456 616.694 275.365 616.58C273.354 614.806 270.783 613.796 268.103 613.728C267.957 613.742 267.81 613.707 267.686 613.63C267.561 613.552 267.466 613.436 267.414 613.298C267.362 613.161 267.357 613.011 267.399 612.871C267.441 612.73 267.528 612.607 267.646 612.521C268.334 611.945 268.919 611.258 269.379 610.488L278.249 587.887Z" fill="#FFF0E9"/>
<path d="M240.877 569.422C240.039 569.101 239.153 568.919 238.256 568.884C238.113 568.888 237.973 568.843 237.859 568.757C237.746 568.67 237.665 568.547 237.631 568.408C237.586 568.271 237.586 568.123 237.631 567.986C237.676 567.849 237.764 567.729 237.881 567.645C238.676 567.029 239.208 566.135 239.37 565.143C239.388 564.992 239.454 564.85 239.557 564.738C239.661 564.626 239.796 564.549 239.945 564.517C240.084 564.495 240.226 564.514 240.354 564.571C240.482 564.629 240.59 564.724 240.665 564.843C241.14 565.575 248.984 570.028 249.685 570.648C249.685 570.648 256.678 574.995 258.004 574.82C258.15 574.85 258.285 574.918 258.395 575.019C258.506 575.119 258.586 575.247 258.63 575.389C258.646 575.535 258.623 575.682 258.563 575.815C258.502 575.949 258.406 576.063 258.286 576.146C257.466 576.69 256.721 577.34 256.071 578.079L243.611 599.266C243.33 600.107 243.168 600.982 243.129 601.868C243.143 602.021 243.1 602.173 243.009 602.297C242.918 602.42 242.785 602.506 242.635 602.537C242.489 602.58 242.334 602.577 242.191 602.527C242.047 602.478 241.923 602.385 241.834 602.262C240.173 600.166 237.796 598.757 235.16 598.309C235.454 598.309 234.616 598.033 234.578 597.758C234.542 597.612 234.552 597.458 234.607 597.318C234.661 597.178 234.759 597.059 234.884 596.976C235.667 596.553 236.363 595.986 236.936 595.306L248.978 574.833C249.478 574.001 244.167 571.223 240.877 569.422Z" fill="#FFF0E9"/>
<path d="M208.859 561.058C214.182 553.883 223.365 551.744 229.42 556.235C235.475 560.727 236.094 570.135 230.771 577.31C225.448 584.484 216.265 586.63 210.21 582.132C204.155 577.635 203.567 568.202 208.859 561.058ZM224.197 573.087C228.576 567.17 230.039 560.814 227.449 558.894C224.86 556.974 219.236 560.239 214.851 566.15C210.466 572.061 209.284 577.973 211.836 579.868C214.388 581.763 219.806 579.005 224.197 573.087Z" fill="#FFF0E9"/>
<path d="M204.884 537.932C204.915 537.838 204.884 537.776 204.934 537.682C204.929 537.54 204.973 537.401 205.058 537.287C205.144 537.174 205.265 537.092 205.403 537.057C205.54 537.029 205.682 537.052 205.804 537.121C205.926 537.19 206.019 537.3 206.066 537.432C207.27 539.822 209.292 541.7 211.765 542.724C211.904 542.779 212.024 542.874 212.11 542.996C212.197 543.118 212.246 543.263 212.252 543.412C212.284 543.559 212.272 543.712 212.216 543.851C212.16 543.99 212.064 544.11 211.94 544.194C211.218 544.636 210.583 545.203 210.063 545.87L198.178 567.952C197.854 568.894 197.664 569.878 197.615 570.873C197.618 571.024 197.57 571.172 197.479 571.293C197.389 571.414 197.26 571.502 197.115 571.542C196.979 571.561 196.841 571.53 196.726 571.456C196.611 571.381 196.527 571.267 196.489 571.136L196.458 571.167C194.963 568.477 193.08 566.732 190.766 565.894L190.797 565.863C190.649 565.813 190.518 565.721 190.42 565.599C190.322 565.477 190.262 565.33 190.246 565.174C190.217 565.021 190.233 564.862 190.293 564.717C190.353 564.573 190.454 564.449 190.584 564.361C191.319 563.925 191.965 563.357 192.492 562.685L201.819 545.357L185.261 555.991C184.629 556.567 184.111 557.257 183.734 558.024C183.651 558.156 183.534 558.262 183.396 558.333C183.258 558.403 183.103 558.435 182.948 558.425C182.793 558.414 182.643 558.363 182.515 558.275C182.387 558.187 182.286 558.065 182.221 557.924C181.977 557.23 179.812 555.422 179.375 555.291C179.062 555.178 178.868 554.941 178.918 554.665C178.948 554.518 179.025 554.386 179.139 554.287C179.252 554.189 179.394 554.131 179.544 554.121C180.53 553.99 181.494 553.725 182.408 553.333L203.507 539.778C204.095 539.227 204.784 538.614 204.884 537.932Z" fill="#FFF0E9"/>
<path d="M174.109 549.661C173.968 549.658 173.832 549.61 173.719 549.525C173.607 549.44 173.524 549.321 173.484 549.186V549.123C172.52 546.621 163.425 536.506 163.425 536.506C162.732 535.936 161.95 535.482 161.111 535.162C160.978 535.121 160.862 535.038 160.781 534.925C160.701 534.812 160.661 534.675 160.667 534.536C160.671 534.395 160.719 534.259 160.804 534.147C160.889 534.035 161.007 533.952 161.142 533.911C162.354 533.355 163.382 532.465 164.107 531.346C164.168 531.215 164.27 531.107 164.397 531.039C164.525 530.97 164.671 530.944 164.814 530.964C164.959 530.968 165.099 531.02 165.212 531.112C165.325 531.203 165.405 531.329 165.439 531.471C165.605 532.356 165.932 533.204 166.403 533.973C168.73 536.863 171.814 540.36 172.539 539.734L177.644 535.312C178 535.055 175.986 532.597 174.841 531.339C174.152 530.754 173.355 530.308 172.495 530.026C172.358 529.966 172.241 529.866 172.162 529.739C172.083 529.611 172.044 529.463 172.051 529.313C172.048 529.166 172.098 529.022 172.191 528.908C172.283 528.793 172.413 528.715 172.558 528.687C173.246 528.15 173.906 527.578 174.535 526.973C174.595 526.836 174.695 526.72 174.823 526.641C174.95 526.562 175.098 526.523 175.248 526.529C175.395 526.556 175.531 526.624 175.642 526.725C175.752 526.825 175.833 526.955 175.873 527.098C176.031 527.987 176.358 528.836 176.837 529.601C177.462 530.608 180.002 533.323 180.364 532.947L187.871 526.473C188.659 525.847 185.638 522.294 183.086 519.548C182.392 518.968 181.597 518.522 180.74 518.235C180.607 518.182 180.495 518.088 180.42 517.966C180.346 517.844 180.313 517.701 180.327 517.559C180.33 517.418 180.378 517.282 180.463 517.169C180.549 517.057 180.667 516.974 180.802 516.934C182.003 516.388 183.021 515.508 183.736 514.4C183.801 514.263 183.907 514.15 184.039 514.076C184.172 514.002 184.324 513.971 184.474 513.987C184.619 513.996 184.755 514.054 184.861 514.153C184.967 514.251 185.036 514.382 185.056 514.525C185.26 515.4 185.584 516.242 186.019 517.027C186.019 517.027 194.777 528.193 197.16 528.769C197.292 528.829 197.4 528.931 197.469 529.058C197.538 529.186 197.563 529.332 197.542 529.475C197.525 529.622 197.465 529.76 197.369 529.871C197.273 529.983 197.146 530.063 197.004 530.101C196.117 530.251 195.268 530.569 194.502 531.039L176.111 546.871C175.532 547.568 175.086 548.365 174.797 549.224C174.75 549.335 174.68 549.435 174.591 549.517C174.455 549.625 174.282 549.677 174.109 549.661Z" fill="#FFF0E9"/>
<path d="M160.372 500.726C160.749 501.1 161.19 501.403 161.674 501.62C161.758 501.65 161.828 501.712 161.868 501.793C161.908 501.874 161.914 501.967 161.886 502.052C161.844 502.151 161.782 502.24 161.703 502.313C161.624 502.386 161.531 502.442 161.43 502.478C159.543 502.952 157.842 503.98 156.544 505.43C156.466 505.505 156.373 505.562 156.27 505.597C156.167 505.632 156.058 505.643 155.95 505.63C155.864 505.614 155.786 505.569 155.728 505.503C155.671 505.438 155.636 505.355 155.631 505.267C155.68 504.731 155.631 504.191 155.487 503.672L148.075 491.431C147.687 491.06 147.233 490.764 146.736 490.561C146.661 490.514 146.604 490.444 146.572 490.362C146.54 490.28 146.536 490.189 146.561 490.104C146.6 490.004 146.661 489.913 146.741 489.84C146.82 489.766 146.914 489.711 147.018 489.679C148.903 489.203 150.604 488.174 151.903 486.727C151.982 486.653 152.076 486.596 152.178 486.562C152.281 486.527 152.389 486.515 152.497 486.526C152.541 486.533 152.583 486.549 152.621 486.572C152.659 486.595 152.692 486.626 152.719 486.662C152.745 486.698 152.763 486.738 152.774 486.782C152.784 486.825 152.786 486.87 152.779 486.914C152.744 487.442 152.808 487.973 152.966 488.478L160.372 500.726Z" fill="#FFF0E9"/>
<path d="M146.854 456.219C147.612 455.738 148.288 455.138 148.856 454.443C148.938 454.325 149.058 454.239 149.196 454.199C149.333 454.159 149.481 454.168 149.613 454.224C149.749 454.26 149.869 454.342 149.953 454.456C150.038 454.569 150.08 454.708 150.076 454.849C150.197 457.527 151.258 460.076 153.072 462.049C153.185 462.144 153.261 462.276 153.286 462.421C153.311 462.567 153.284 462.716 153.21 462.843C153.157 462.976 153.063 463.089 152.941 463.164C152.819 463.239 152.677 463.274 152.534 463.263C151.64 463.139 150.73 463.181 149.851 463.388L127.438 472.702C126.667 473.175 125.994 473.79 125.455 474.516C125.354 474.628 125.222 474.707 125.076 474.743C124.93 474.779 124.776 474.769 124.635 474.716C124.502 474.664 124.389 474.57 124.313 474.448C124.238 474.326 124.204 474.183 124.216 474.041C124.093 471.362 123.033 468.811 121.22 466.834C121.112 466.737 121.038 466.607 121.009 466.464C120.981 466.321 120.999 466.173 121.062 466.042C121.124 465.91 121.228 465.802 121.356 465.734C121.485 465.666 121.633 465.642 121.777 465.665C122.668 465.759 123.568 465.703 124.441 465.502L146.854 456.219Z" fill="#FFF0E9"/>
<path d="M134.2 416.51C133.849 415.686 133.368 414.923 132.774 414.252C132.671 414.152 132.606 414.02 132.589 413.878C132.571 413.735 132.604 413.592 132.68 413.47C132.747 413.343 132.853 413.24 132.982 413.177C133.112 413.114 133.258 413.094 133.399 413.12C134.399 413.264 135.415 413.025 136.246 412.451C136.369 412.363 136.516 412.315 136.668 412.315C136.819 412.315 136.967 412.363 137.09 412.451C137.2 412.537 137.284 412.652 137.33 412.784C137.377 412.916 137.385 413.059 137.353 413.195C137.153 414.052 139.398 422.791 139.436 423.716C139.436 423.716 141.162 431.773 142.207 432.599C142.282 432.728 142.322 432.875 142.322 433.024C142.322 433.174 142.282 433.321 142.207 433.45C142.113 433.562 141.991 433.646 141.854 433.694C141.716 433.743 141.568 433.753 141.425 433.725C140.465 433.51 139.48 433.425 138.498 433.475L114.602 439.211C113.8 439.591 113.056 440.084 112.394 440.675C112.288 440.782 112.149 440.851 111.999 440.87C111.85 440.889 111.698 440.858 111.568 440.781C111.436 440.706 111.33 440.592 111.266 440.454C111.202 440.316 111.183 440.161 111.212 440.011C111.567 437.36 110.93 434.671 109.423 432.461C109.61 432.687 109.241 431.88 109.423 431.661C109.503 431.534 109.621 431.435 109.76 431.378C109.899 431.321 110.052 431.308 110.198 431.342C111.046 431.614 111.938 431.723 112.826 431.661L135.914 426.112C136.902 425.862 135.195 420.12 134.2 416.51Z" fill="#FFF0E9"/>
<path d="M118.011 387.642C126.874 386.497 134.787 391.627 135.751 399.102C136.714 406.577 130.371 413.552 121.507 414.696C112.644 415.841 104.737 410.712 103.767 403.237C102.798 395.761 109.178 388.781 118.011 387.642ZM119.987 407.034C127.293 406.089 132.879 402.73 132.467 399.527C132.054 396.325 125.805 394.523 118.498 395.486C111.192 396.45 106.119 399.677 106.532 402.836C106.945 405.995 112.687 407.972 119.987 407.027V407.034Z" fill="#FFF0E9"/>
<path d="M131.91 368.751C131.997 368.707 132.041 368.664 132.129 368.62C132.227 368.515 132.358 368.447 132.501 368.428C132.643 368.408 132.788 368.439 132.911 368.514C133.025 368.593 133.108 368.712 133.142 368.848C133.177 368.983 133.161 369.127 133.099 369.252C132.212 371.786 132.268 374.555 133.255 377.052C133.313 377.191 133.329 377.344 133.301 377.492C133.274 377.639 133.203 377.776 133.099 377.884C133.016 378.009 132.898 378.106 132.76 378.163C132.621 378.22 132.469 378.234 132.323 378.203C131.498 377.978 130.639 377.908 129.789 377.997L105.644 384.759C104.738 385.179 103.896 385.724 103.142 386.379C103.037 386.488 102.897 386.558 102.747 386.576C102.596 386.594 102.444 386.56 102.316 386.479C102.206 386.394 102.131 386.273 102.105 386.137C102.078 386.001 102.102 385.86 102.172 385.741H102.128C103.029 382.807 102.973 380.236 101.972 377.99H102.016C101.955 377.848 101.933 377.691 101.953 377.538C101.973 377.384 102.033 377.238 102.128 377.116C102.223 376.993 102.349 376.898 102.494 376.841C102.638 376.784 102.794 376.766 102.948 376.789C103.771 377.022 104.631 377.094 105.481 377.002L124.422 371.691L105.281 367.156C104.435 367.103 103.586 367.209 102.779 367.469C102.627 367.504 102.469 367.495 102.322 367.444C102.175 367.393 102.045 367.302 101.947 367.181C101.841 367.066 101.77 366.923 101.744 366.769C101.717 366.614 101.736 366.456 101.797 366.312C102.135 365.649 101.947 362.821 101.722 362.433C101.648 362.316 101.619 362.177 101.639 362.04C101.66 361.903 101.729 361.779 101.834 361.689C101.96 361.604 102.111 361.565 102.262 361.578C102.414 361.59 102.556 361.654 102.666 361.758C103.444 362.381 104.305 362.893 105.225 363.278L129.621 369.064C130.446 369.089 131.353 369.158 131.91 368.751Z" fill="#FFF0E9"/>
<path d="M102.103 354.77C102.002 354.666 101.937 354.531 101.919 354.387C101.901 354.242 101.931 354.096 102.003 353.97L102.047 353.932C103.186 351.493 104.136 337.931 104.136 337.931C104.071 337.037 103.86 336.16 103.511 335.335C103.445 335.208 103.425 335.063 103.453 334.923C103.482 334.783 103.557 334.657 103.667 334.566C103.771 334.464 103.906 334.399 104.05 334.38C104.194 334.36 104.341 334.388 104.468 334.459C105.71 334.943 107.063 335.065 108.371 334.81C108.509 334.763 108.657 334.762 108.796 334.805C108.934 334.849 109.055 334.936 109.141 335.053C109.234 335.162 109.29 335.299 109.3 335.442C109.31 335.585 109.274 335.727 109.197 335.848C108.671 336.582 108.286 337.407 108.059 338.281C107.602 341.959 107.227 346.607 108.184 346.688L114.908 347.314C115.34 347.395 115.709 344.237 115.821 342.535C115.761 341.634 115.527 340.752 115.133 339.939C115.08 339.799 115.072 339.645 115.109 339.5C115.145 339.355 115.226 339.224 115.34 339.126C115.444 339.026 115.579 338.966 115.723 338.954C115.866 338.943 116.009 338.981 116.128 339.063C116.993 339.187 117.863 339.266 118.736 339.301C118.876 339.247 119.029 339.238 119.175 339.273C119.32 339.309 119.451 339.389 119.55 339.501C119.623 339.627 119.662 339.771 119.662 339.917C119.662 340.063 119.623 340.207 119.55 340.333C119.017 341.066 118.63 341.894 118.411 342.773C118.129 343.93 117.929 347.627 118.455 347.633L128.307 348.515C129.302 348.646 129.764 344.005 129.965 340.264C129.9 339.361 129.666 338.479 129.276 337.662C129.231 337.527 129.226 337.382 129.263 337.244C129.3 337.107 129.377 336.983 129.484 336.889C129.591 336.796 129.724 336.736 129.865 336.717C130.006 336.699 130.15 336.723 130.277 336.786C131.504 337.27 132.843 337.392 134.137 337.137C134.281 337.089 134.437 337.086 134.582 337.13C134.728 337.174 134.856 337.261 134.95 337.381C135.041 337.492 135.09 337.631 135.09 337.775C135.09 337.918 135.041 338.057 134.95 338.169C134.465 338.927 134.084 339.748 133.818 340.608C133.818 340.608 131.86 354.651 133.111 356.772C133.158 356.909 133.161 357.059 133.117 357.197C133.073 357.336 132.985 357.457 132.867 357.541C132.75 357.634 132.608 357.688 132.46 357.698C132.311 357.708 132.163 357.673 132.035 357.598C131.315 357.073 130.502 356.689 129.639 356.466L105.513 354.301C104.61 354.369 103.728 354.602 102.91 354.989C102.798 355.036 102.676 355.055 102.554 355.046C102.374 355.016 102.212 354.917 102.103 354.77Z" fill="#FFF0E9"/>
<path d="M127.784 310.871C127.772 311.401 127.858 311.93 128.041 312.428C128.078 312.511 128.081 312.604 128.051 312.689C128.021 312.774 127.959 312.844 127.878 312.885C127.779 312.928 127.673 312.95 127.565 312.95C127.458 312.95 127.351 312.928 127.253 312.885C125.601 311.855 123.68 311.341 121.735 311.409C121.627 311.406 121.522 311.379 121.425 311.33C121.329 311.281 121.245 311.212 121.179 311.127C121.132 311.052 121.111 310.964 121.119 310.876C121.127 310.788 121.163 310.705 121.222 310.639C121.64 310.302 121.994 309.893 122.267 309.432L125.964 295.576C125.962 295.041 125.86 294.511 125.664 294.013C125.644 293.926 125.654 293.836 125.691 293.755C125.728 293.675 125.791 293.609 125.87 293.568C125.968 293.521 126.075 293.496 126.183 293.496C126.291 293.496 126.398 293.521 126.496 293.568C128.146 294.595 130.064 295.109 132.007 295.045C132.114 295.048 132.22 295.076 132.316 295.124C132.412 295.173 132.496 295.242 132.563 295.326C132.589 295.363 132.608 295.404 132.618 295.448C132.629 295.492 132.63 295.537 132.622 295.581C132.615 295.625 132.599 295.668 132.574 295.706C132.55 295.743 132.519 295.776 132.482 295.801C132.076 296.143 131.737 296.557 131.481 297.021L127.784 310.871Z" fill="#FFF0E9"/>
<path d="M150.463 270.274C151.334 270.488 152.234 270.557 153.128 270.48C153.269 270.457 153.414 270.484 153.538 270.556C153.663 270.628 153.758 270.74 153.81 270.874C153.881 271.002 153.905 271.151 153.877 271.295C153.85 271.439 153.773 271.569 153.659 271.662C151.808 273.606 150.701 276.139 150.532 278.818C150.536 278.961 150.491 279.101 150.405 279.215C150.318 279.329 150.195 279.409 150.056 279.444C149.924 279.499 149.778 279.51 149.64 279.475C149.501 279.44 149.377 279.361 149.287 279.25C148.754 278.521 148.093 277.896 147.335 277.405L125.079 267.715C124.204 267.484 123.293 267.424 122.395 267.54C122.246 267.545 122.099 267.504 121.973 267.424C121.846 267.343 121.747 267.227 121.689 267.089C121.627 266.959 121.613 266.81 121.648 266.67C121.683 266.53 121.766 266.406 121.882 266.32C123.734 264.379 124.841 261.848 125.01 259.17C124.986 259.014 125.018 258.855 125.1 258.72C125.182 258.585 125.309 258.484 125.459 258.433C125.609 258.383 125.771 258.387 125.918 258.446C126.065 258.504 126.186 258.612 126.261 258.751C126.809 259.462 127.476 260.074 128.232 260.559L150.463 270.274Z" fill="#FFF0E9"/>
<path d="M170.287 233.605C170.638 232.78 170.849 231.903 170.913 231.009C170.91 230.864 170.958 230.722 171.048 230.607C171.138 230.493 171.265 230.414 171.407 230.384C171.547 230.346 171.695 230.352 171.831 230.403C171.967 230.453 172.083 230.545 172.164 230.665C172.75 231.484 173.628 232.048 174.616 232.241C174.77 232.26 174.914 232.328 175.027 232.435C175.14 232.542 175.215 232.683 175.242 232.836C175.259 232.975 175.236 233.116 175.173 233.242C175.111 233.368 175.013 233.472 174.891 233.542C174.141 233.993 169.406 241.674 168.761 242.35C168.761 242.35 164.157 249.181 164.289 250.482C164.256 250.63 164.183 250.767 164.078 250.877C163.974 250.987 163.841 251.067 163.694 251.107C163.548 251.118 163.401 251.089 163.27 251.023C163.139 250.957 163.028 250.856 162.95 250.732C162.43 249.892 161.799 249.126 161.073 248.455L140.362 235.225C139.533 234.911 138.663 234.717 137.779 234.65C137.631 234.646 137.489 234.593 137.376 234.498C137.262 234.404 137.184 234.274 137.153 234.13C137.116 233.983 137.125 233.828 137.179 233.686C137.233 233.544 137.328 233.422 137.453 233.336C139.611 231.757 141.106 229.435 141.651 226.818C141.619 227.106 141.945 226.28 142.226 226.249C142.373 226.22 142.524 226.238 142.661 226.298C142.797 226.358 142.912 226.459 142.989 226.586C143.383 227.385 143.925 228.103 144.584 228.701L164.602 241.48C165.433 242.037 168.367 236.839 170.287 233.605Z" fill="#FFF0E9"/>
<path d="M179.817 201.903C186.792 207.483 188.574 216.74 183.889 222.627C179.204 228.513 169.752 228.788 162.771 223.208C155.79 217.629 154.014 208.371 158.699 202.485C163.384 196.598 172.874 196.348 179.817 201.903ZM167.237 216.791C172.992 221.388 179.285 223.077 181.299 220.544C183.314 218.01 180.261 212.293 174.506 207.689C168.751 203.085 162.897 201.696 160.907 204.18C158.918 206.663 161.489 212.187 167.237 216.822V216.791Z" fill="#FFF0E9"/>
<path d="M203.067 198.782C203.16 198.813 203.223 198.813 203.317 198.844C203.462 198.84 203.603 198.887 203.717 198.976C203.831 199.065 203.911 199.191 203.943 199.332C203.961 199.467 203.93 199.604 203.857 199.718C203.784 199.833 203.672 199.917 203.542 199.958C201.103 201.078 199.151 203.042 198.044 205.487C197.983 205.624 197.883 205.74 197.758 205.823C197.633 205.905 197.487 205.949 197.337 205.95C197.189 205.977 197.036 205.959 196.898 205.899C196.76 205.838 196.643 205.739 196.561 205.612C196.153 204.861 195.608 204.193 194.954 203.642L173.323 190.969C172.394 190.61 171.419 190.384 170.427 190.299C170.279 190.292 170.138 190.237 170.025 190.142C169.912 190.047 169.834 189.918 169.801 189.774C169.739 189.53 169.926 189.28 170.233 189.148L170.201 189.117C172.941 187.728 174.755 185.902 175.675 183.625H175.706C175.766 183.482 175.863 183.357 175.988 183.265C176.112 183.172 176.259 183.115 176.413 183.099C176.568 183.083 176.723 183.109 176.864 183.174C177.005 183.239 177.125 183.341 177.213 183.469C177.622 184.22 178.168 184.888 178.821 185.439L195.792 195.385L185.783 178.458C185.233 177.804 184.562 177.262 183.807 176.863C183.676 176.778 183.572 176.658 183.506 176.516C183.441 176.374 183.417 176.217 183.438 176.062C183.446 175.906 183.499 175.755 183.591 175.628C183.683 175.502 183.81 175.405 183.957 175.349C184.664 175.13 186.571 173.035 186.697 172.603C186.815 172.29 187.059 172.109 187.322 172.171C187.467 172.202 187.597 172.28 187.693 172.394C187.788 172.507 187.842 172.649 187.847 172.797C187.94 173.789 188.17 174.764 188.529 175.693L201.309 197.261C201.803 197.95 202.385 198.682 203.067 198.782Z" fill="#FFF0E9"/>
<path d="M192.461 167.605C192.467 167.461 192.518 167.322 192.608 167.21C192.698 167.097 192.822 167.016 192.961 166.979H193.024C195.57 166.11 205.997 157.39 205.997 157.39C206.59 156.716 207.072 155.952 207.424 155.126C207.469 154.989 207.559 154.873 207.68 154.795C207.8 154.718 207.944 154.684 208.087 154.7C208.23 154.708 208.368 154.76 208.48 154.85C208.592 154.94 208.673 155.062 208.712 155.201C209.225 156.431 210.075 157.491 211.164 158.259C211.289 158.329 211.39 158.434 211.454 158.561C211.518 158.688 211.543 158.832 211.525 158.973C211.506 159.115 211.446 159.247 211.352 159.354C211.258 159.461 211.133 159.537 210.995 159.573C210.1 159.703 209.237 159.998 208.449 160.443C205.484 162.663 201.875 165.622 202.475 166.366L206.71 171.627C206.948 171.996 209.481 170.069 210.776 168.975C211.387 168.304 211.863 167.523 212.178 166.673C212.241 166.538 212.345 166.425 212.475 166.352C212.605 166.278 212.754 166.246 212.903 166.26C213.045 166.272 213.18 166.329 213.288 166.424C213.395 166.519 213.468 166.645 213.497 166.785C214.007 167.494 214.554 168.175 215.136 168.825C215.272 168.888 215.383 168.992 215.457 169.122C215.531 169.252 215.563 169.402 215.549 169.55C215.515 169.693 215.442 169.824 215.338 169.927C215.234 170.031 215.104 170.104 214.961 170.138C214.065 170.263 213.201 170.558 212.415 171.008C211.389 171.633 208.587 174.035 208.95 174.417L215.149 182.123C215.743 182.93 219.402 180.047 222.242 177.595C222.845 176.922 223.318 176.144 223.637 175.299C223.701 175.171 223.802 175.066 223.926 174.996C224.051 174.927 224.193 174.896 224.335 174.908C224.478 174.92 224.613 174.975 224.723 175.064C224.834 175.154 224.916 175.275 224.957 175.411C225.464 176.63 226.308 177.678 227.39 178.433C227.524 178.503 227.633 178.613 227.701 178.747C227.77 178.882 227.794 179.034 227.772 179.184C227.758 179.327 227.696 179.462 227.594 179.564C227.493 179.667 227.359 179.731 227.215 179.746C226.331 179.918 225.474 180.211 224.669 180.616C224.669 180.616 213.197 188.948 212.534 191.325C212.475 191.46 212.371 191.569 212.239 191.634C212.108 191.699 211.957 191.716 211.815 191.682C211.666 191.662 211.526 191.597 211.415 191.497C211.303 191.396 211.225 191.265 211.189 191.119C211.067 190.239 210.78 189.39 210.345 188.617L195.163 169.732C194.49 169.13 193.712 168.657 192.867 168.337C192.758 168.284 192.66 168.21 192.58 168.118C192.527 168.045 192.489 167.961 192.469 167.873C192.448 167.785 192.446 167.694 192.461 167.605Z" fill="#FFF0E9"/>
<path d="M241.859 155.658C241.473 156.014 241.155 156.438 240.921 156.909C240.887 156.993 240.822 157.06 240.739 157.097C240.656 157.133 240.561 157.135 240.477 157.102C240.378 157.059 240.291 156.995 240.221 156.913C240.15 156.832 240.099 156.736 240.07 156.633C239.664 154.727 238.699 152.985 237.299 151.629C237.222 151.546 237.166 151.446 237.134 151.338C237.103 151.229 237.097 151.114 237.118 151.003C237.137 150.918 237.185 150.841 237.253 150.786C237.321 150.73 237.405 150.699 237.493 150.697C238.026 150.765 238.566 150.735 239.088 150.609L251.599 143.653C251.982 143.277 252.294 142.834 252.518 142.346C252.567 142.272 252.639 142.216 252.723 142.188C252.807 142.159 252.898 142.16 252.981 142.19C253.08 142.233 253.167 142.297 253.238 142.378C253.308 142.459 253.359 142.555 253.388 142.659C253.794 144.565 254.759 146.307 256.159 147.663C256.234 147.747 256.289 147.847 256.32 147.955C256.352 148.064 256.358 148.177 256.34 148.289C256.322 148.377 256.27 148.455 256.195 148.505C256.12 148.555 256.029 148.574 255.94 148.558C255.413 148.502 254.881 148.545 254.37 148.683L241.859 155.658Z" fill="#FFF0E9"/>
<path d="M474.854 353.413C474.854 352.675 474.917 351.937 474.917 351.192C474.917 321.323 449.72 295.432 418.65 295.432C395.924 295.432 376.364 310.057 367.482 328.692C358.599 310.057 339.039 295.432 316.319 295.432C285.243 295.432 260.021 321.323 260.021 351.192C260.021 351.937 260.022 352.675 260.084 353.413C260.084 353.413 256.906 388.893 296.365 427.632C306.555 437.841 317.426 447.762 330.963 459.341C341.129 468.036 354.066 472.815 367.444 472.815C380.822 472.815 393.759 468.036 403.925 459.341C417.461 447.762 428.321 437.841 438.523 427.632C478.026 388.893 474.854 353.413 474.854 353.413Z" fill="#2B0F0B"/>
<defs>
<filter id="filter0_d_1782_1330" x="0" y="0" width="756.963" height="779.962" filterUnits="userSpaceOnUse" color-interpolation-filters="sRGB">
<feFlood flood-opacity="0" result="BackgroundImageFix"/>
<feColorMatrix in="SourceAlpha" type="matrix" values="0 0 0 0 0 0 0 0 0 0 0 0 0 0 0 0 0 0 127 0" result="hardAlpha"/>
<feOffset dx="22" dy="45"/>
<feComposite in2="hardAlpha" operator="out"/>
<feColorMatrix type="matrix" values="0 0 0 0 0.266667 0 0 0 0 0.168796 0 0 0 0 0.0988889 0 0 0 1 0"/>
<feBlend mode="normal" in2="BackgroundImageFix" result="effect1_dropShadow_1782_1330"/>
<feBlend mode="normal" in="SourceGraphic" in2="effect1_dropShadow_1782_1330" result="shape"/>
</filter>
</defs>
</svg>
